<svg width="123" height="155" viewBox="0 0 123 155" fill="none" xmlns="http://www.w3.org/2000/svg">
<line x1="2" y1="2.39851" x2="100.731" y2="2.39851" stroke="black" stroke-width="3"/>
<line x1="100.269" y1="3.89851" x2="100.269" y2="70.6386" stroke="black" stroke-width="3"/>
<line x1="73.2692" y1="69.7994" x2="121" y2="69.7994" stroke="black" stroke-width="3"/>
<line x1="120.539" y1="70.6386" x2="120.539" y2="152.577" stroke="black" stroke-width="3"/>
<line x1="121" y1="153.416" x2="73.2693" y2="153.416" stroke="black" stroke-width="3"/>
<line x1="73.7308" y1="152.577" x2="73.7308" y2="69.9778" stroke="black" stroke-width="3"/>
<line x1="75.2308" y1="137.557" x2="2.00001" y2="137.557" stroke="black" stroke-width="3"/>
<line x1="2.46155" y1="136.718" x2="2.46154" y2="2.57693" stroke="black" stroke-width="3"/>
<ellipse cx="51.0385" cy="125.484" rx="3.26923" ry="3.30396" stroke="black" stroke-width="3"/>
<ellipse cx="51.0385" cy="125.484" rx="3.26923" ry="3.30396" stroke="black" stroke-width="3"/>
<ellipse cx="51.0385" cy="125.484" rx="3.26923" ry="3.30396" stroke="black" stroke-width="3"/>
<ellipse cx="51.0385" cy="125.484" rx="3.26923" ry="3.30396" stroke="black" stroke-width="3"/>
<ellipse cx="97.4616" cy="144.647" rx="3.26923" ry="3.30396" stroke="black" stroke-width="3"/>
<ellipse cx="97.4616" cy="144.647" rx="3.26923" ry="3.30396" stroke="black" stroke-width="3"/>
<ellipse cx="97.4616" cy="144.647" rx="3.26923" ry="3.30396" stroke="black" stroke-width="3"/>
<ellipse cx="97.4616" cy="144.647" rx="3.26923" ry="3.30396" stroke="black" stroke-width="3"/>
</svg>
