<?xml version="1.0" standalone="no"?><!-- Generator: Gravit.io --><svg xmlns="http://www.w3.org/2000/svg" xmlns:xlink="http://www.w3.org/1999/xlink" style="isolation:isolate" viewBox="0 0 200 200" width="200" height="200"><defs><clipPath id="_clipPath_xh1d0ICd8vNjowbYMeUeSIcFoipHMII3"><rect width="200" height="200"/></clipPath></defs><g clip-path="url(#_clipPath_xh1d0ICd8vNjowbYMeUeSIcFoipHMII3)"><g style="isolation:isolate" id="logo"><path d="M 40 0 L 160 0 C 182.077 0 200 17.923 200 40 L 200 160 C 200 182.077 182.077 200 160 200 L 40 200 C 17.923 200 0 182.077 0 160 L 0 40 C 0 17.923 17.923 0 40 0 Z" style="stroke:none;fill:#FFFFFF;stroke-miterlimit:10;"/><path d="M 40 0 L 160 0 C 182.077 0 200 17.923 200 40 L 200 160 C 200 182.077 182.077 200 160 200 L 40 200 C 17.923 200 0 182.077 0 160 L 0 40 C 0 17.923 17.923 0 40 0 Z" style="fill:none;stroke:#000000;stroke-width:1;stroke-linecap:square;stroke-miterlimit:3;"/><path d="M 33.871 58.766 L 166.129 58.766 C 167.019 58.766 167.742 59.488 167.742 60.379 L 167.742 139.621 C 167.742 140.512 167.019 141.234 166.129 141.234 L 33.871 141.234 C 32.981 141.234 32.258 140.512 32.258 139.621 L 32.258 60.379 C 32.258 59.488 32.981 58.766 33.871 58.766 Z" style="stroke:none;fill:#000000;stroke-linecap:square;stroke-miterlimit:3;"/><rect x="94" y="143" width="12" height="6" transform="matrix(1,0,0,1,0,0)" fill="rgb(0,0,0)"/><line x1="70.5" y1="152" x2="129.5" y2="152" vector-effect="non-scaling-stroke" stroke-width="2" stroke="rgb(0,0,0)" stroke-linejoin="miter" stroke-linecap="square" stroke-miterlimit="3"/></g></g></svg>