<?xml version="1.0" standalone="no"?><!-- Generator: Gravit.io --><svg xmlns="http://www.w3.org/2000/svg" xmlns:xlink="http://www.w3.org/1999/xlink" style="isolation:isolate" viewBox="0 0 200 200" width="200" height="200"><defs><clipPath id="_clipPath_8LG4ZlDOr4ZtyJXTsXPqThg563SkrSHY"><rect width="200" height="200"/></clipPath></defs><g clip-path="url(#_clipPath_8LG4ZlDOr4ZtyJXTsXPqThg563SkrSHY)"><g style="isolation:isolate" id="logo"><path d="M 99 0 L 101 0 C 155.64 0 200 44.36 200 99 L 200 101 C 200 155.64 155.64 200 101 200 L 99 200 C 44.36 200 0 155.64 0 101 L 0 99 C 0 44.36 44.36 0 99 0 Z" style="stroke:none;fill:#C5EBF1;stroke-miterlimit:10;"/><path d="M 33.871 58.766 L 166.129 58.766 C 167.019 58.766 167.742 59.488 167.742 60.379 L 167.742 139.621 C 167.742 140.512 167.019 141.234 166.129 141.234 L 33.871 141.234 C 32.981 141.234 32.258 140.512 32.258 139.621 L 32.258 60.379 C 32.258 59.488 32.981 58.766 33.871 58.766 Z" style="stroke:none;fill:#727373;stroke-miterlimit:10;"/><rect x="94" y="143" width="12" height="6" transform="matrix(1,0,0,1,0,0)" fill="rgb(114,115,115)"/><line x1="70.5" y1="152" x2="129.5" y2="152" vector-effect="non-scaling-stroke" stroke-width="2" stroke="rgb(114,115,115)" stroke-linejoin="miter" stroke-linecap="square" stroke-miterlimit="3"/><path d=" M 84 100 C 84 91.169 91.169 84 100 84 C 108.831 84 116 91.169 116 100 C 116 108.831 108.831 116 100 116 C 91.169 116 84 108.831 84 100 Z " fill="rgb(235,235,235)"/></g></g></svg>