<svg width="16" height="16" viewBox="0 0 16 16" fill="none" xmlns="http://www.w3.org/2000/svg">
<path d="M8 1.5C4.416 1.5 1.5 4.416 1.5 8C1.5 11.584 4.416 14.5 8 14.5C11.584 14.5 14.5 11.584 14.5 8C14.5 4.416 11.584 1.5 8 1.5ZM8 2.5C11.043 2.5 13.5 4.957 13.5 8C13.5 11.043 11.043 13.5 8 13.5C4.957 13.5 2.5 11.043 2.5 8C2.5 4.957 4.957 2.5 8 2.5ZM7.953 5C6.291 5 4.953 6.338 4.953 8C4.953 9.662 6.291 11 7.953 11C9.1525 11 10.178 10.281 10.656 9.2655L9.75 8.844C9.4275 9.529 8.754 10 7.953 10C6.8145 10 5.953 9.1385 5.953 8C5.953 6.8615 6.8145 6 7.953 6C8.754 6 9.428 6.4705 9.75 7.1565L10.6565 6.7345C10.1775 5.719 9.1525 5 7.9525 5H7.953Z" fill="#C4C4C4"/>
</svg>
